<svg width="22" height="22" viewBox="0 0 22 22" fill="none" xmlns="http://www.w3.org/2000/svg">
<path d="M9.77783 21.3398C9.18213 21.3398 8.74268 20.9883 8.61572 20.4121L8.12744 18.3516C7.79541 18.2344 7.48291 18.1074 7.18994 17.9707L5.39307 19.084C4.90479 19.3867 4.32861 19.3379 3.92822 18.9375L2.67822 17.6777C2.26807 17.2773 2.20947 16.6816 2.53174 16.1934L3.63525 14.4062C3.49854 14.1133 3.37158 13.8008 3.27393 13.498L1.19385 13.0098C0.617676 12.8828 0.275879 12.4434 0.275879 11.8574V10.0996C0.275879 9.52344 0.617676 9.07422 1.19385 8.94727L3.25439 8.44922C3.37158 8.10742 3.49854 7.80469 3.61572 7.54102L2.51221 5.71484C2.19971 5.2168 2.23877 4.66016 2.65869 4.25L3.92822 2.99023C4.34814 2.60938 4.85596 2.55078 5.354 2.82422L7.18018 3.94727C7.47314 3.80078 7.79541 3.67383 8.12744 3.56641L8.61572 1.48633C8.74268 0.910156 9.18213 0.558594 9.77783 0.558594H11.5649C12.1509 0.558594 12.5903 0.910156 12.7173 1.48633L13.2153 3.57617C13.5474 3.69336 13.8599 3.82031 14.1431 3.95703L15.979 2.82422C16.4771 2.55078 16.9946 2.61914 17.4048 2.99023L18.6743 4.25C19.0942 4.66016 19.1333 5.2168 18.8208 5.71484L17.7173 7.54102C17.8345 7.80469 17.9712 8.10742 18.0786 8.44922L20.1392 8.94727C20.7153 9.07422 21.0571 9.52344 21.0571 10.0996V11.8574C21.0571 12.4434 20.7153 12.8828 20.1392 13.0098L18.0591 13.498C17.9614 13.8008 17.8345 14.1133 17.6978 14.4062L18.8013 16.1934C19.1235 16.6816 19.0649 17.2773 18.6646 17.6777L17.4048 18.9375C17.0044 19.3379 16.4282 19.3867 15.9497 19.084L14.1431 17.9707C13.8501 18.1074 13.5376 18.2344 13.2056 18.3516L12.7173 20.4121C12.5903 20.9883 12.1509 21.3398 11.5649 21.3398H9.77783ZM10.6665 14.3672C12.5513 14.3672 14.0845 12.8242 14.0845 10.9395C14.0845 9.07422 12.5513 7.54102 10.6665 7.54102C8.7915 7.54102 7.2583 9.07422 7.2583 10.9395C7.2583 12.8242 8.7915 14.3672 10.6665 14.3672Z" fill="#FFD913"/>
</svg>
